<?xml version="1.0" standalone="no"?>
<!DOCTYPE svg PUBLIC "-//W3C//DTD SVG 20010904//EN"
 "http://www.w3.org/TR/2001/REC-SVG-20010904/DTD/svg10.dtd">
<svg version="1.0" xmlns="http://www.w3.org/2000/svg"
 width="1024.000000pt" height="1024.000000pt" viewBox="0 0 1024.000000 1024.000000"
 preserveAspectRatio="xMidYMid meet">
<metadata>
Created by potrace 1.11, written by Peter Selinger 2001-2013
</metadata>
<g transform="translate(0.000000,1024.000000) scale(0.100000,-0.100000)"
fill="#000000" stroke="none">
<path d="M1645 10229 c-22 -5 -47 -12 -55 -16 -8 -3 -17 -7 -20 -7 -3 -1 -30
-15 -60 -32 -81 -46 -158 -129 -190 -204 -6 -14 -15 -34 -20 -45 -6 -11 -15
-44 -20 -74 -7 -35 -10 -1580 -10 -4472 0 -3525 -3 -4418 -12 -4422 -7 -2 -25
0 -41 4 -15 4 -27 4 -27 -1 0 -6 -10 -6 -25 0 -14 5 -27 5 -30 0 -3 -5 -18 -5
-35 0 -17 5 -30 5 -30 0 0 -5 -13 -5 -30 0 -17 5 -30 5 -30 0 0 -5 -13 -5 -30
0 -18 5 -30 5 -30 0 0 -6 -10 -6 -25 0 -14 5 -25 6 -25 2 0 -4 -14 -7 -32 -6
-52 1 -98 -18 -147 -62 -79 -71 -80 -77 -81 -514 l0 -380 4480 0 4480 0 0 380
c-1 329 -3 386 -18 425 -9 25 -20 45 -24 45 -4 0 -8 5 -8 11 0 14 -57 61 -91
76 -47 20 -169 35 -169 21 0 -3 -13 -3 -30 2 -17 5 -30 5 -30 0 0 -5 -13 -5
-30 0 -17 5 -30 5 -30 0 0 -5 -13 -5 -28 0 -16 4 -36 4 -45 -1 -9 -6 -18 -5
-22 0 -3 6 -15 7 -29 1 -12 -4 -29 -5 -36 0 -7 4 -19 6 -27 3 -11 -4 -13 725
-13 4423 -1 3662 -3 4439 -14 4484 -33 137 -116 245 -236 309 -120 64 165 60
-3600 59 -2040 0 -3451 -4 -3475 -9z m654 -949 c16 4 34 4 41 0 7 -5 23 -4 36
0 12 5 25 6 28 3 9 -9 66 -9 66 0 0 5 5 5 11 1 15 -9 120 -11 126 -1 2 4 9 4
15 1 5 -4 582 -8 1281 -10 700 -2 1830 -6 2512 -8 682 -3 1320 -5 1418 -6
l177 0 0 -4140 0 -4140 -1125 0 -1124 0 1 33 c0 17 -1 37 -2 42 -1 6 -1 15 0
20 4 21 1 106 -5 115 -3 6 -2 10 3 10 5 0 6 19 2 42 -3 24 -3 58 1 76 4 18 3
34 -1 37 -4 3 -4 21 0 40 4 19 4 37 0 40 -4 3 -4 21 0 40 4 19 4 37 0 40 -4 3
-4 21 0 40 4 19 4 37 0 40 -4 3 -4 21 0 40 4 19 4 37 0 40 -4 3 -4 21 0 40 4
19 4 37 0 40 -4 3 -4 21 0 40 4 20 4 38 -1 41 -5 3 -7 10 -3 15 8 14 8 144 0
158 -4 6 -4 11 1 11 4 0 8 29 8 65 0 36 -3 65 -7 65 -4 0 -3 12 1 28 5 15 5
37 0 49 -5 13 -4 25 1 28 5 3 7 11 5 18 -2 7 -6 35 -9 64 -7 57 -20 98 -39
118 -6 7 -20 21 -29 31 -34 38 -76 61 -127 69 -19 3 -38 8 -43 11 -4 3 -8 0
-8 -6 0 -7 -6 -8 -19 0 -14 7 -22 7 -26 0 -4 -7 -11 -7 -18 -2 -7 5 -21 6 -32
2 -11 -4 -30 -4 -42 1 -15 5 -23 5 -23 -2 0 -6 -7 -6 -19 1 -14 7 -22 7 -26 0
-4 -7 -11 -7 -18 -2 -7 5 -21 6 -32 2 -11 -4 -30 -4 -42 1 -15 5 -23 5 -23 -2
0 -6 -7 -6 -19 1 -12 6 -22 6 -26 1 -5 -9 -36 -8 -53 3 -4 2 -14 1 -22 -4 -7
-4 -24 -4 -37 1 -14 5 -23 5 -23 -1 0 -6 -9 -6 -22 -1 -13 5 -32 5 -43 1 -11
-4 -30 -4 -42 1 -14 5 -23 5 -23 -1 0 -6 -9 -6 -24 0 -13 5 -27 6 -30 3 -9 -9
-116 -9 -116 0 0 5 -6 5 -12 0 -7 -4 -24 -9 -36 -11 -29 -4 -100 -47 -124 -76
-31 -38 -50 -88 -54 -143 -2 -31 -6 -58 -8 -62 -3 -4 -1 -13 3 -20 5 -7 5 -28
1 -47 -4 -19 -4 -36 0 -39 4 -3 4 -21 0 -40 -4 -19 -4 -37 0 -40 4 -3 4 -21 0
-40 -4 -20 -4 -38 1 -41 5 -3 7 -10 3 -15 -8 -14 -8 -144 0 -158 4 -6 4 -11
-1 -11 -4 0 -8 -29 -8 -65 0 -36 3 -65 7 -65 4 0 3 -12 -1 -27 -5 -16 -5 -37
-1 -48 4 -11 5 -24 2 -30 -8 -12 -5 -102 3 -115 3 -6 3 -10 -2 -10 -9 0 -9
-67 0 -76 3 -3 2 -16 -2 -28 -5 -11 -5 -30 -1 -41 4 -11 5 -24 2 -29 -8 -14
-8 -76 0 -76 4 0 3 -12 -1 -27 -5 -16 -5 -37 -1 -48 4 -11 5 -24 2 -29 -7 -13
-5 -103 3 -116 4 -7 -342 -10 -1124 -10 l-1131 0 3 2429 c1 1337 6 2433 9
2437 4 4 4 12 0 18 -11 18 -9 300 3 308 6 5 6 8 0 8 -12 0 -14 418 -2 437 4 6
4 14 0 16 -9 6 -9 244 0 253 3 3 2 16 -2 28 -4 11 -6 73 -4 136 3 139 3 107 0
275 -1 77 1 146 6 153 5 6 6 12 1 12 -5 0 -9 31 -9 70 0 38 4 70 8 70 5 0 5 5
1 12 -9 14 -10 69 -1 91 4 10 3 17 -1 17 -4 0 -7 43 -7 95 0 52 4 95 8 95 5 0
5 5 1 12 -4 7 -7 33 -5 58 2 53 2 45 -1 143 -2 44 0 81 4 83 4 3 4 12 1 21 -6
15 -8 120 -3 133 1 3 1 10 0 15 -5 23 -2 103 4 114 4 6 3 11 -1 11 -9 0 -8 74
2 90 3 6 2 10 -2 10 -9 0 -8 74 2 90 3 6 3 10 -2 10 -4 0 -8 29 -8 65 0 36 3
65 7 65 4 0 5 6 2 13 -8 21 -10 167 -2 167 4 0 3 12 -1 28 -5 15 -5 37 0 49 4
12 4 25 0 28 -5 3 -5 21 -1 40 4 19 4 35 0 35 -11 0 1 54 14 62 6 4 12 3 14
-1 2 -5 16 -6 31 -1z"/>
<path d="M3459 8325 c-4 -3 -24 -7 -45 -10 -57 -6 -88 -20 -134 -61 -41 -37
-67 -80 -73 -121 -2 -12 -6 -25 -9 -28 -3 -4 -2 -20 2 -36 5 -17 5 -29 0 -29
-6 0 -6 -10 -1 -23 5 -13 5 -30 1 -37 -5 -8 -5 -19 0 -25 5 -6 5 -17 0 -25 -5
-8 -5 -21 1 -32 5 -10 6 -18 2 -18 -10 0 -8 -63 2 -79 3 -6 2 -11 -4 -11 -7 0
-7 -8 -2 -23 5 -13 5 -30 1 -37 -5 -8 -5 -21 0 -30 5 -9 5 -22 0 -30 -5 -8 -5
-21 0 -31 5 -9 6 -19 3 -23 -9 -9 -9 -65 -1 -59 5 2 4 -7 -2 -21 -6 -16 -6
-26 0 -26 6 0 6 -9 0 -25 -6 -15 -6 -26 0 -30 7 -4 6 -13 0 -25 -6 -12 -7 -21
0 -25 5 -3 6 -13 3 -23 -8 -19 -7 -54 1 -124 12 -112 98 -200 204 -211 17 -2
35 -6 38 -9 3 -4 19 -2 35 2 17 5 29 5 29 0 0 -6 10 -6 25 0 14 5 25 6 25 1 0
-5 16 -5 35 -1 19 4 35 4 35 -1 0 -5 11 -4 25 1 14 5 25 6 25 2 0 -4 14 -7 30
-7 17 0 30 3 30 7 0 3 12 3 27 -1 16 -4 45 -4 65 -1 21 4 38 4 38 -1 0 -4 14
-4 30 1 17 5 30 5 30 0 0 -5 13 -5 30 0 17 5 30 6 30 2 0 -4 29 -7 65 -7 36 0
65 3 65 7 0 4 11 3 25 -2 16 -6 25 -6 25 0 0 6 9 6 24 0 13 -5 26 -6 30 -3 3
3 25 7 50 9 72 4 145 58 182 134 20 40 35 215 20 238 -2 4 -1 14 3 21 5 7 5
28 1 47 -4 19 -4 34 0 34 4 0 4 18 0 40 -4 22 -4 40 1 40 5 0 6 6 4 13 -9 23
-11 82 -4 108 4 15 3 32 -1 39 -4 7 -4 25 0 40 4 15 4 33 0 40 -4 7 -4 25 0
40 4 15 4 33 0 40 -4 7 -4 24 -1 39 4 14 4 41 0 59 -4 17 -3 35 2 38 5 3 7 8
5 12 -2 4 -7 24 -10 46 -17 106 -94 184 -200 200 -21 4 -42 9 -47 12 -5 3 -9
0 -9 -6 0 -7 -6 -8 -19 0 -13 6 -22 7 -26 0 -3 -5 -15 -6 -29 0 -12 4 -29 4
-36 0 -8 -5 -22 -4 -31 1 -12 6 -20 5 -24 -1 -4 -6 -11 -7 -17 -4 -14 9 -113
8 -127 0 -5 -4 -12 -3 -15 2 -5 8 -85 7 -93 -2 -3 -3 -16 -1 -29 4 -14 6 -26
6 -29 -1 -4 -5 -12 -6 -18 -2 -6 4 -21 7 -32 7 -11 0 -26 -3 -32 -7 -6 -4 -14
-3 -18 3 -4 7 -12 7 -26 0 -12 -7 -19 -7 -19 -1 0 7 -8 7 -22 2 -13 -5 -32 -5
-43 -1 -11 4 -30 4 -42 -1 -13 -5 -23 -4 -25 2 -2 6 -6 8 -9 4z"/>
<path d="M6027 8323 c-3 -3 -26 -6 -49 -8 -112 -5 -207 -101 -213 -212 -2 -30
-5 -57 -8 -59 -3 -3 -1 -21 3 -40 4 -19 5 -36 1 -38 -4 -3 -4 -30 -1 -61 3
-31 3 -58 -1 -60 -3 -3 -3 -23 1 -45 4 -22 4 -43 0 -45 -4 -3 -4 -21 0 -40 4
-19 4 -35 0 -35 -4 0 -4 -16 0 -35 4 -19 4 -37 0 -40 -4 -2 -4 -23 0 -45 4
-22 4 -43 0 -45 -4 -3 -5 -20 -1 -37 4 -18 4 -48 0 -65 -3 -18 -3 -33 1 -33 4
0 4 -16 0 -34 -4 -19 -6 -37 -3 -39 2 -3 6 -25 9 -50 11 -116 95 -202 207
-213 89 -9 127 -9 127 -2 0 4 6 5 13 2 24 -9 98 -10 103 -2 3 5 10 6 15 3 12
-8 102 -10 114 -3 6 3 19 2 30 -2 11 -4 30 -4 42 1 12 5 25 4 28 -1 3 -5 18
-5 35 0 18 5 30 5 30 0 0 -6 9 -6 23 -1 12 5 31 5 43 1 11 -5 27 -4 34 0 8 5
22 4 31 -1 11 -6 20 -5 24 1 3 6 15 6 30 0 15 -6 27 -6 30 0 4 7 13 7 24 0 10
-5 21 -7 24 -3 3 3 26 6 49 8 110 5 209 102 212 207 0 26 3 48 6 48 3 0 5 24
5 54 0 30 -3 52 -7 49 -5 -2 -4 6 1 19 5 13 5 33 0 46 -5 13 -5 22 1 22 6 0 6
9 0 25 -5 14 -6 25 -2 25 9 0 7 163 -2 178 -3 6 -2 13 4 17 7 4 7 12 0 25 -6
12 -7 21 0 25 6 4 6 15 0 30 -6 16 -6 25 0 25 6 0 6 9 0 25 -5 14 -6 25 -2 25
4 0 7 16 7 35 0 19 -3 35 -7 35 -4 0 -3 11 2 25 6 16 6 25 0 25 -6 0 -6 9 0
24 5 13 6 27 3 30 -3 3 -7 22 -8 43 -8 105 -100 198 -208 209 -89 9 -127 9
-127 2 0 -4 -6 -5 -13 -2 -24 9 -98 10 -103 2 -3 -5 -10 -6 -15 -3 -12 8 -102
10 -114 3 -6 -3 -19 -2 -30 2 -11 4 -30 4 -42 -1 -12 -5 -25 -4 -28 1 -3 5
-18 5 -35 0 -17 -5 -30 -5 -30 0 0 6 -10 6 -22 1 -13 -5 -32 -5 -44 -1 -11 5
-27 4 -34 0 -8 -5 -22 -4 -31 1 -11 6 -20 5 -24 -1 -3 -6 -15 -6 -30 0 -15 6
-27 6 -30 0 -4 -7 -13 -7 -24 0 -10 5 -21 7 -24 3z"/>
<path d="M3490 6400 c0 -3 -28 -6 -63 -6 -117 -2 -207 -85 -222 -203 -3 -24
-8 -47 -11 -52 -3 -5 -1 -9 5 -9 7 0 7 -8 1 -25 -6 -16 -6 -25 1 -25 6 0 6 -7
-1 -19 -7 -14 -7 -22 0 -26 7 -4 7 -11 2 -18 -5 -7 -6 -21 -2 -32 4 -11 4 -30
-1 -42 -5 -15 -5 -23 2 -23 6 0 6 -6 0 -18 -7 -13 -7 -22 0 -29 8 -8 8 -13 0
-17 -7 -4 -7 -15 -1 -30 5 -13 7 -26 4 -29 -9 -9 -11 -62 -2 -79 5 -10 4 -19
-2 -23 -6 -4 -6 -15 0 -30 5 -14 6 -25 2 -25 -9 0 -6 -65 3 -80 3 -6 2 -10 -4
-10 -7 0 -7 -8 -1 -25 5 -14 6 -25 2 -25 -12 0 -2 -185 11 -208 5 -6 6 -12 2
-12 -9 0 46 -83 69 -102 54 -47 105 -58 256 -57 63 0 124 0 135 0 11 -1 49 0
85 0 36 1 72 1 80 0 8 0 44 0 80 0 36 1 71 1 78 0 6 0 18 -1 25 -2 53 -4 258
6 289 14 41 10 142 92 132 108 -3 5 0 9 5 9 6 0 11 9 11 20 0 11 4 20 8 20 5
0 9 32 9 70 0 39 3 73 5 76 3 2 2 23 -2 44 -4 22 -4 43 0 45 4 3 4 21 0 40 -4
19 -4 37 0 40 5 3 5 18 0 34 -4 15 -4 34 0 41 4 6 4 26 0 44 -10 44 -10 42 0
74 4 16 4 35 0 42 -4 7 -4 25 0 40 4 15 4 33 0 40 -4 7 -4 25 0 40 4 15 4 33
0 40 -4 7 -4 24 -1 39 4 14 4 41 0 59 -4 17 -3 35 2 38 5 3 7 8 5 12 -2 4 -7
24 -10 46 -18 111 -105 194 -213 201 -25 2 -47 6 -50 9 -3 3 -14 1 -24 -4 -11
-7 -20 -7 -24 0 -3 6 -15 6 -30 0 -15 -6 -27 -6 -30 0 -3 6 -15 6 -30 0 -14
-5 -27 -5 -30 0 -3 5 -18 5 -35 0 -17 -5 -30 -5 -30 0 0 5 -13 5 -30 0 -16 -5
-30 -6 -30 -2 0 4 -97 7 -215 7 -118 0 -215 -2 -215 -5z"/>
<path d="M6010 6406 c-3 -2 -24 -7 -48 -11 -112 -16 -201 -121 -198 -233 0
-23 -1 -42 -4 -42 -3 0 -4 -21 -3 -47 1 -27 2 -48 3 -48 1 0 2 -24 3 -53 1
-28 -1 -52 -4 -52 -4 0 -3 -18 1 -40 4 -22 4 -43 -1 -45 -4 -3 -4 -19 1 -35 5
-16 5 -32 0 -35 -4 -3 -4 -21 0 -40 4 -19 4 -37 0 -40 -4 -3 -4 -20 0 -39 4
-19 4 -39 0 -46 -4 -7 -4 -26 -1 -44 4 -17 4 -46 0 -64 -3 -18 -3 -35 1 -37 5
-3 5 -18 0 -34 -4 -16 -5 -32 -2 -35 3 -4 7 -25 8 -49 1 -23 3 -43 4 -44 1 -2
3 -6 4 -10 4 -20 31 -61 60 -91 57 -61 105 -73 296 -71 58 0 112 0 120 0 8 0
62 0 120 0 58 1 112 1 120 0 58 -2 214 1 221 4 4 3 10 1 14 -4 3 -6 11 -8 18
-6 7 2 40 6 74 9 119 10 205 92 220 209 8 67 9 156 1 150 -5 -2 -4 7 2 21 6
16 6 26 0 26 -6 0 -6 9 0 25 6 15 6 26 0 30 -7 4 -6 13 0 25 7 13 7 21 0 25
-6 4 -7 11 -3 18 8 13 7 102 -2 117 -3 5 -2 10 4 10 7 0 7 8 1 26 -6 14 -7 23
-2 21 4 -3 7 8 7 24 0 16 -3 29 -7 29 -4 0 -3 11 2 25 6 16 6 25 0 25 -6 0 -6
9 0 25 6 15 6 27 0 30 -6 3 -6 15 0 30 6 16 6 25 0 25 -6 0 -6 9 -1 23 5 12 5
32 0 45 -5 14 -5 22 2 22 6 0 7 4 4 10 -3 5 -8 27 -10 49 -11 111 -96 192
-214 207 -62 8 -587 8 -599 0 -6 -4 -13 -2 -17 3 -3 7 -15 7 -30 1 -15 -6 -27
-6 -30 0 -3 6 -15 6 -30 0 -14 -5 -27 -5 -30 0 -3 5 -18 5 -35 0 -18 -5 -30
-5 -32 1 -2 6 -6 8 -8 5z"/>
<path d="M3424 4480 c-10 -4 -27 -6 -36 -4 -10 1 -18 -2 -18 -7 0 -5 -9 -9
-20 -9 -11 0 -20 -5 -20 -11 0 -5 -4 -8 -9 -5 -11 7 -89 -76 -101 -110 -6 -14
-12 -43 -15 -66 -3 -22 -8 -44 -11 -49 -3 -5 -1 -9 5 -9 7 0 7 -8 1 -25 -6
-16 -6 -25 1 -25 6 0 6 -7 -1 -19 -7 -14 -7 -22 0 -26 7 -4 7 -11 2 -18 -5 -7
-6 -21 -2 -32 4 -11 4 -30 -1 -42 -5 -15 -5 -23 2 -23 6 0 6 -6 0 -18 -7 -13
-7 -22 0 -29 8 -8 8 -13 0 -17 -7 -4 -7 -15 -1 -30 5 -13 7 -26 4 -28 -8 -9
-11 -67 -3 -79 4 -7 5 -17 2 -23 -9 -14 -9 -65 -1 -59 5 2 4 -7 -2 -21 -6 -16
-6 -26 0 -26 6 0 6 -9 0 -25 -6 -15 -6 -26 0 -30 7 -4 6 -13 0 -25 -6 -12 -7
-21 0 -25 5 -3 6 -13 3 -23 -14 -35 0 -159 23 -204 38 -76 110 -127 187 -133
21 -1 40 -5 43 -8 3 -3 17 -2 30 3 15 6 24 6 24 0 0 -6 9 -6 25 0 14 5 27 5
30 0 3 -5 18 -5 35 0 17 5 30 5 30 0 0 -5 13 -5 30 0 17 5 30 5 30 0 0 -5 13
-5 30 0 18 5 30 5 30 0 0 -6 10 -6 25 0 14 5 25 6 25 1 0 -5 16 -5 35 -1 19 4
35 4 35 0 0 -5 14 -5 30 0 17 5 30 5 30 0 0 -5 13 -5 30 0 18 5 30 5 30 0 0
-6 10 -6 25 0 14 5 25 6 25 1 0 -5 16 -5 35 -1 19 4 35 5 35 1 0 -3 25 -6 55
-6 30 0 55 2 55 5 0 3 22 6 48 6 76 3 150 55 188 134 20 40 35 215 20 238 -2
4 -1 14 3 21 5 7 5 28 1 47 -4 19 -4 34 0 34 4 0 4 18 0 40 -4 22 -4 40 1 40
5 0 6 6 4 13 -9 23 -11 82 -4 108 4 15 3 32 -1 39 -4 7 -4 25 0 40 4 15 4 33
0 40 -4 7 -4 25 0 40 4 15 4 33 0 40 -4 7 -4 24 -1 39 4 14 4 41 0 59 -4 17
-3 35 2 38 5 3 7 9 5 12 -2 4 -7 27 -11 51 -8 56 -25 86 -75 137 -33 34 -77
52 -142 60 -29 4 -56 8 -60 10 -4 3 -9 1 -12 -4 -3 -5 -28 -6 -56 -2 -27 4
-50 2 -50 -2 0 -5 -4 -7 -9 -3 -5 3 -31 5 -58 5 -26 0 -57 0 -68 -1 -68 0
-182 -1 -190 0 -99 3 -136 3 -140 -1 -3 -3 -24 -2 -45 2 -22 4 -42 4 -45 0 -3
-4 -22 -4 -43 0 -21 4 -47 4 -58 0z"/>
<path d="M6017 4484 c-1 -1 -20 -4 -42 -7 -61 -9 -91 -23 -135 -63 -64 -60
-80 -110 -81 -266 0 -21 2 -41 5 -46 2 -4 1 -14 -3 -21 -5 -7 -5 -28 -1 -47 4
-19 4 -34 0 -34 -4 0 -4 -18 0 -40 4 -22 4 -40 -1 -40 -5 0 -6 -6 -4 -12 9
-24 11 -83 4 -109 -4 -15 -3 -32 1 -39 4 -7 4 -25 0 -40 -4 -15 -4 -33 0 -40
4 -7 4 -25 0 -40 -4 -15 -4 -33 0 -40 4 -7 4 -24 1 -39 -4 -14 -4 -41 0 -59 4
-17 3 -35 -2 -38 -5 -3 -7 -9 -5 -12 2 -4 7 -27 11 -51 8 -54 28 -93 68 -129
38 -35 60 -52 69 -53 13 -2 28 -6 31 -9 1 -1 18 -4 37 -6 74 -9 110 -9 110 -1
0 4 8 3 18 -2 10 -5 24 -6 32 -1 8 5 21 5 31 -1 12 -6 20 -5 24 1 4 6 11 7 17
4 14 -9 113 -8 127 0 5 4 12 2 15 -3 4 -6 18 -6 34 -1 16 4 35 4 43 -1 8 -4
21 -4 29 1 7 4 24 4 37 -1 14 -5 23 -5 23 1 0 5 9 6 22 1 13 -4 35 -5 50 0 16
4 28 4 28 -1 0 -6 10 -6 25 0 14 5 25 6 25 2 0 -4 13 -7 29 -7 16 0 27 3 24 7
-2 5 7 4 21 -2 14 -5 26 -6 26 -2 0 4 26 7 58 8 111 2 202 87 217 203 3 24 8
47 11 52 3 5 1 9 -5 9 -7 0 -7 8 -1 25 6 16 6 25 -1 25 -6 0 -6 7 1 19 7 14 7
22 0 26 -7 4 -7 11 -2 18 5 7 6 21 2 32 -4 11 -4 30 1 43 5 14 5 22 -2 22 -6
0 -6 6 0 18 7 13 7 22 0 29 -8 8 -8 13 0 17 7 4 7 15 1 30 -5 13 -7 26 -4 28
8 9 11 67 3 79 -4 7 -5 17 -2 23 9 14 9 65 1 59 -5 -2 -4 7 2 21 6 16 6 26 0
26 -6 0 -6 9 0 25 6 15 6 26 0 30 -7 4 -6 13 0 25 6 12 7 21 0 25 -5 3 -6 13
-3 23 15 38 0 160 -27 211 -38 75 -103 119 -189 126 -24 3 -46 6 -48 9 -2 2
-20 0 -39 -4 -19 -4 -36 -5 -38 -1 -3 4 -32 4 -65 1 -34 -3 -61 -3 -61 0 0 5
-180 3 -217 -3 -13 -3 -23 -1 -23 2 0 5 -308 9 -313 5z"/>
</g>
</svg>
